<svg xmlns="http://www.w3.org/2000/svg" width="43" height="43" viewBox="0 0 43 43">
    <path fill="#03628c" fill-rule="nonzero" d="M21.276 0C9.526 0 0 9.626 0 21.5S9.525 43 21.276 43c11.75 0 21.276-9.626 21.276-21.5S33.027 0 21.276 0zm6.279 30.626c-.33.336-.676.688-.956.977-.253.26-.431.58-.522.927-.127.49-.23.986-.403 1.461l-1.47 4.058c-1.162.26-2.365.406-3.603.406v-2.371c.142-1.093-.646-3.14-1.913-4.439a2.807 2.807 0 0 1-.792-1.96v-2.772c0-1.008-.53-1.935-1.39-2.423-1.215-.688-2.942-1.65-4.125-2.26-.97-.501-1.868-1.139-2.675-1.885l-.067-.062a9.875 9.875 0 0 1-1.527-1.796c-.792-1.193-2.084-3.155-2.923-4.43 1.73-3.94 4.848-7.105 8.721-8.824l2.03 1.04c.898.46 1.956-.209 1.956-1.24v-.978a16.492 16.492 0 0 1 2.062-.21l2.391 2.452a1.41 1.41 0 0 1 0 1.96l-.396.405-.874.895a.705.705 0 0 0 0 .98l.396.406c.264.27.264.71 0 .98l-.676.693a.668.668 0 0 1-.478.202h-.76a.667.667 0 0 0-.471.197l-.839.836a.706.706 0 0 0-.133.806l1.317 2.701c.225.461-.102 1.003-.604 1.003h-.477a.666.666 0 0 1-.442-.17l-.785-.698a1.328 1.328 0 0 0-1.314-.268l-2.634.9c-.412.14-.69.536-.69.982 0 .392.216.75.558.926l.937.48a5.61 5.61 0 0 0 2.561.62c.89 0 1.91 2.363 2.704 2.771h5.641c.718 0 1.405.292 1.912.812L27.96 25.9c.484.496.755 1.168.755 1.868 0 1.073-.418 2.1-1.16 2.857zm8.317-7.147a2.227 2.227 0 0 1-1.311-.88l-1.667-2.38a2.031 2.031 0 0 1 0-2.35l1.816-2.593c.215-.306.51-.555.857-.72l1.203-.572c1.253 2.376 1.977 5.048 1.977 7.884 0 .765-.069 1.514-.17 2.254l-2.705-.643z"/>
</svg>
