<svg xmlns="http://www.w3.org/2000/svg" width="49" height="47" viewBox="0 0 49 47">
    <path fill="#03628c" fill-rule="nonzero" d="M21.999 9.161l3.115.908a.536.536 0 0 1-.143 1.048h-2.044c-.224 0-.442-.05-.641-.14-.3-.14-.648-.108-.879.127l-1.09 1.111c-.33.337-.293.908.093 1.168.592.4 1.265.642 1.981.73v1.124c0 .559.449 1.016.997 1.016h.997c.548 0 .997-.457.997-1.016V14.12c1.887-.229 3.32-1.968 3.071-4-.18-1.46-1.29-2.622-2.673-3.028l-3.114-.908a.536.536 0 0 1 .143-1.048h2.043c.225 0 .443.051.642.14.299.14.648.108.878-.127l1.09-1.111c.33-.337.293-.908-.093-1.168a4.498 4.498 0 0 0-1.981-.73V1.016A1.01 1.01 0 0 0 24.391 0h-.997a1.01 1.01 0 0 0-.996 1.016v1.117c-1.888.229-3.32 1.968-3.072 4 .181 1.46 1.29 2.622 2.673 3.028zM48.091 30.12c-1.009-.983-2.567-.918-3.63 0l-7.855 6.783a5.18 5.18 0 0 1-3.405 1.285h-10.06c-.748 0-1.361-.66-1.361-1.468 0-.808.613-1.469 1.36-1.469h6.657c1.36 0 2.612-1 2.828-2.442.28-1.836-1.036-3.433-2.684-3.433H16.33c-2.297 0-4.522.854-6.297 2.414L6.08 35.25H1.36c-.747 0-1.36.66-1.36 1.469v8.812C0 46.34.613 47 1.36 47h30.346c1.234 0 2.432-.45 3.405-1.285l12.863-11.108c1.297-1.11 1.396-3.24.117-4.488z"/>
</svg>
