<svg xmlns="http://www.w3.org/2000/svg" width="41" height="36" viewBox="0 0 41 36">
    <path fill="#03628c" fill-rule="nonzero" d="M11.958 14.786v6.428c0 1.065-.86 1.929-1.922 1.929H1.922A1.925 1.925 0 0 1 0 21.214v-6.428c0-1.065.86-1.929 1.922-1.929h8.114c1.062 0 1.922.864 1.922 1.929zM0 27.643v6.428C0 35.137.86 36 1.922 36h8.114a1.925 1.925 0 0 0 1.922-1.929v-6.428c0-1.065-.86-1.929-1.922-1.929H1.922A1.925 1.925 0 0 0 0 27.643zM10.036 0H1.922A1.925 1.925 0 0 0 0 1.929v6.428c0 1.065.86 1.929 1.922 1.929h8.114a1.925 1.925 0 0 0 1.922-1.929V1.93C11.958.863 11.098 0 10.036 0zm6.407 36h22.635A1.925 1.925 0 0 0 41 34.071v-6.428c0-1.065-.86-1.929-1.922-1.929H16.443a1.925 1.925 0 0 0-1.922 1.929v6.428c0 1.066.86 1.929 1.922 1.929zM14.52 1.929v6.428c0 1.065.86 1.929 1.922 1.929h22.635A1.925 1.925 0 0 0 41 8.357V1.93C41 .863 40.14 0 39.078 0H16.443a1.925 1.925 0 0 0-1.922 1.929zm1.922 21.214h22.635A1.925 1.925 0 0 0 41 21.214v-6.428c0-1.065-.86-1.929-1.922-1.929H16.443a1.925 1.925 0 0 0-1.922 1.929v6.428c0 1.065.86 1.929 1.922 1.929z"/>
</svg>
