<svg xmlns="http://www.w3.org/2000/svg" width="40" height="34" viewBox="0 0 40 34">
    <path fill="#03628c" fill-rule="nonzero" d="M38.298 7.742l-4.13-6.68a2.03 2.03 0 0 0-1.724-.967H6.741c-.7 0-1.356.367-1.725.967L.887 7.742c-2.131 3.45-.242 8.247 3.741 8.795.287.038.58.058.872.058 1.883 0 3.55-.838 4.695-2.134a6.257 6.257 0 0 0 4.696 2.134c1.883 0 3.55-.838 4.695-2.134a6.257 6.257 0 0 0 4.696 2.134c1.883 0 3.55-.838 4.695-2.134 1.152 1.296 2.819 2.134 4.695 2.134.3 0 .586-.02.872-.058 3.996-.542 5.892-5.34 3.754-8.795zm-4.583 10.814a7.96 7.96 0 0 1-1.882-.246v6.477H7.341V18.31c-.612.142-1.243.246-1.881.246a8.46 8.46 0 0 1-1.148-.078 7.902 7.902 0 0 1-1.046-.233v12.773c0 1.149.912 2.077 2.04 2.077h28.575c1.129 0 2.04-.928 2.04-2.077V18.245a6.416 6.416 0 0 1-1.045.233c-.39.052-.772.078-1.161.078z"/>
</svg>
