<svg xmlns="http://www.w3.org/2000/svg" xmlns:xlink="http://www.w3.org/1999/xlink" width="201" height="61" viewBox="0 0 201 61">
    <defs>
        <path id="a" d="M.424.177h24.39v32.515H.424z"/>
    </defs>
    <g fill="none" fill-rule="evenodd">
        <path fill="#009BDD" d="M18.407 33.578c6.761 2.317 7.139 4.656 7.697 8.115.347 2.147.772 4.782 3.29 8.236.585.802.936 1.757 1.244 2.595l.078.21.93 2.524-2.062-1.68c-5.85-4.761-6.696-7.385-7.448-9.715-.426-1.322-.82-2.54-2.278-4.057-1.159-1.205-2.902-1.702-4.694-2.212-.62-.177-1.248-.355-1.897-.577-2.124-.725-3.723-1.398-5.213-2.248a24.64 24.64 0 0 1-2.944-1.994c.351 1.29.854 2.586 1.44 3.811 1.029 2.142 2.313 4.065 3.497 5.375 2.097 1.839 3.788 2.26 5.474 2.68 2.823.703 5.637 1.403 10.051 7.599 1.87 2.624 2.768 3.282 3.04 3.437l.157.068-.492 1.4c0-.001-.022-.008-.064-.027l-.002.003c-3.606-1.538-5.269-3.373-7.215-5.52-.371-.41-.75-.828-.984-1.077-1.77-1.896-3.755-2.052-5.717-2.206-1.068-.084-2.131-.168-3.184-.49.478.88 1.096 1.8 1.767 2.669 1.24 1.606 2.64 3.006 3.655 3.62l.052.031.036.03c1.28 1.05 2.795 1.542 4.735 2.17 1.837.595 4.036 1.308 6.804 2.721 1.792.914 3.694 1.259 5.594 1.175 2.153-.096 4.31-.741 6.31-1.735 3.897-1.938 8.11-5.654 11.115-10.817 2.452-4.213 4.093-9.392 4.093-15.356 0-8.724-3.452-16.621-9.034-22.338C40.658 4.282 32.948.746 24.431.746c-4.233 0-8.318.8-12.047 2.298C8.627 4.552 5.23 6.765 2.409 9.577 1.33 10.653.826 12.223.74 13.972c-.104 2.134.405 4.517 1.252 6.635 1.393 3.481 3.795 6.136 6.68 8.206 2.923 2.099 6.35 3.605 9.736 4.765m11.629 19.418c-9.258-7.539-5.575-9.463-9.66-13.71-1.722-1.792-4.398-2.126-6.881-2.974-4.155-1.419-6.243-2.625-9.516-5.413.6 4.311 3.261 9.067 5.56 11.596 5.64 4.976 8.375.256 15.447 10.182 2.092 2.936 3.171 3.598 3.438 3.728-3.997-1.721-5.513-3.851-7.888-6.394-3.466-3.71-7.42-1.397-10.873-3.672.931 2.942 4.422 7.162 6.503 8.418 2.642 2.171 5.938 2.054 11.67 4.98 4.04 2.06 8.6 1.404 12.543-.558C47.662 55.559 56 45.931 56 32.336 56 14.477 41.866 0 24.43 0 15.752 0 7.664 3.304 1.904 9.043-.75 11.685-.324 16.78 1.32 20.89c2.9 7.253 9.973 11.035 16.857 13.394 10.779 3.694 4.256 7.342 10.634 16.091.573.785.914 1.783 1.225 2.621m-1.612 3.409a.515.515 0 0 0 .066.028c-.022-.01-.044-.02-.066-.028m17.402-13.528c-2.86-4.88-10.189-2.217-12.823-1.625-6.272-1.351.715-9.751-6.233-13.471-7.5-4.015-13.988-4.508-19.951-8.777-2.17-1.554-1.813-2.498-.697-4.015 7.641-8.12 20.614-9.974 30.477-5.403 9.235 4.28 15.09 13.574 15.78 22.797 1.122 15.02-10.48 26.176-18.671 26.646-2.018.115-2.036-.163-1.515-1.69 2.809-8.231 14.62-14.386 14.176-8.538.918-.735 1.882-2.732 1.903-3.908-.163-1.337-.95-1.962-2.446-2.016M31.507 57.094c1.571-4.605 5.826-8.58 9.366-10.34 1.076-.535 2.102-.874 2.985-.974 1.008-.114 1.86.077 2.455.625.2.184.367.403.494.656.067-.12.132-.245.194-.372.304-.625.518-1.275.543-1.746-.06-.444-.208-.76-.448-.956-.278-.227-.708-.346-1.296-.367l-.394-.014-.204-.348c-2.246-3.833-7.92-2.347-10.922-1.56-.42.11-.79.208-1.123.282l-.148.033-.154-.033c-3.646-.785-3.554-3.398-3.448-6.37.091-2.572.194-5.475-2.973-7.17-3.276-1.754-6.389-2.835-9.345-3.862-3.767-1.309-7.285-2.53-10.685-4.965-1.29-.923-1.833-1.726-1.891-2.581-.059-.855.373-1.6 1.028-2.492l.022-.03.036-.037c3.868-4.11 9.054-6.66 14.528-7.631C25.78 5.84 31.75 6.52 36.898 8.907c4.628 2.145 8.43 5.515 11.19 9.504 2.899 4.188 4.654 9.06 5.017 13.916.011.156.023.34.034.558.412 7.516-2.267 14.059-6.086 18.803-3.842 4.772-8.863 7.74-13.087 8.07l-.218.014c-1.267.072-1.943-.026-2.319-.51-.418-.534-.267-1.155.078-2.168"/>
        <path fill="#009BDD" d="M18.176 34.284c10.78 3.694 4.258 7.342 10.635 16.091.573.785.914 1.783 1.225 2.621-9.258-7.539-5.575-9.463-9.66-13.711-1.722-1.791-4.398-2.125-6.882-2.973-4.154-1.419-6.242-2.625-9.515-5.413.6 4.311 3.262 9.067 5.56 11.595 5.64 4.977 8.375.257 15.448 10.183 2.44 3.427 3.503 3.756 3.503 3.756-4.046-1.726-5.566-3.865-7.954-6.422-3.466-3.71-7.42-1.397-10.872-3.673.93 2.943 4.42 7.163 6.502 8.419 2.642 2.17 5.938 2.054 11.67 4.98 4.04 2.06 8.6 1.404 12.544-.558C47.662 55.559 56 45.931 56 32.336 56 14.477 41.866 0 24.431 0 15.751 0 7.663 3.304 1.902 9.043-.748 11.685-.324 16.78 1.32 20.89c2.9 7.254 9.973 11.036 16.856 13.395m14.017 23.055c2.809-8.231 14.62-14.386 14.176-8.538.919-.735 1.882-2.732 1.903-3.908-.163-1.337-.95-1.962-2.447-2.016-2.86-4.88-10.188-2.218-12.822-1.625-6.271-1.351.715-9.752-6.233-13.471-7.499-4.015-13.988-4.508-19.95-8.777-2.171-1.554-1.814-2.498-.698-4.016 7.64-8.12 20.615-9.973 30.477-5.402 9.235 4.28 15.091 13.574 15.78 22.797 1.122 15.02-10.48 26.175-18.671 26.646-2.018.115-2.036-.163-1.515-1.69"/>
        <g transform="translate(176 25)">
            <mask id="b" fill="#fff">
                <use xlink:href="#a"/>
            </mask>
            <path fill="#009BDD" d="M17.464 3.125c.457-1.093 1.108-1.837 1.953-2.23.844-.392 1.671-.623 2.48-.691.825-.06 1.686.008 2.592.168.348.062.396.136.239.504a7082.91 7082.91 0 0 1-5.893 13.728c-.773 1.777-1.539 3.536-2.295 5.279a878.423 878.423 0 0 0-2.033 4.715c-.598 1.4-1.1 2.562-1.504 3.484a52.62 52.62 0 0 1-.713 1.59c-.492 1.093-1.143 1.844-1.953 2.254-.81.41-1.619.65-2.428.718-2.802.336-4.68-1.062-4.417-4.605 2.579 1.94 3.687-.956 4.232-2.237a339.4 339.4 0 0 1 1.769-4.074l-.66-1.486c-.334-.752-.722-1.658-1.161-2.717-.44-1.058-.933-2.212-1.478-3.459a247.872 247.872 0 0 1-1.61-3.767A834.365 834.365 0 0 0 .483.861C.333.495.49.425.708.376a8.947 8.947 0 0 1 2.61-.172c.809.068 1.627.299 2.454.691.827.393 1.487 1.137 1.98 2.23.07.17.255.606.554 1.307.3.7.668 1.58 1.109 2.639.44 1.059.94 2.23 1.504 3.51.563 1.282 1.126 2.571 1.689 3.87a645.84 645.84 0 0 0 1.795-4.1c.563-1.298 1.065-2.46 1.504-3.485.44-1.025.792-1.87 1.056-2.536.264-.667.43-1.069.502-1.205" mask="url(#b)"/>
        </g>
        <path fill="#009BDD" d="M100.508 16.409C99.742 17.469 98.685 18 97.336 18c-.583 0-1.13-.106-1.64-.318-.548-.273-.967-.629-1.258-1.069A2.533 2.533 0 0 1 94 15.182c0-.576.164-1.09.492-1.546a3.332 3.332 0 0 1 1.368-1.205A4.034 4.034 0 0 1 97.664 12c.547 0 1.075.12 1.586.363.584.243 1.02.591 1.313 1.046.291.455.437.94.437 1.454 0 .546-.164 1.06-.492 1.546"/>
        <path fill="#030402" d="M92.613 41.298c-2.652 2.913-10.957 1.631-13.044-1.465-1.298-1.925-1.24-6.781-1.24-9.046l-.106-12.864c0-3.877-2.097-5.852-6.223-5.923l.007 4.86v13.623c0 3.207.21 6.373.632 8.55.42 2.177 1.168 3.925 2.239 5.242 1.07 1.316 2.52 2.254 4.346 2.81 1.825.557 4.143.836 6.953.836 3.234 0 6.763-1.75 6.638-5.224v-.043h-.002a7.24 7.24 0 0 0-.2-1.356zm9.526.394v-13.05l-.002-4.91c-2.1.02-3.643.46-4.74 1.315-1.123.878-1.685 2.33-1.685 4.355L95.659 42.3c0 2.488.784 4.144 3.19 5.1.742.293 2.208.529 3.33.527 0 0 0-2.045-.01-2.51-.021-.97-.03-2.197-.03-3.725zm29.71-5.84c0 1.654-.28 3.215-.843 4.684a12.074 12.074 0 0 1-2.37 3.874c-1.018 1.08-2.257 1.941-3.714 2.583-1.457.641-3.081.962-4.873.962-1.615 0-3.134-.32-4.556-.962a12.72 12.72 0 0 1-3.767-2.583c-1.054-1.08-1.888-2.355-2.502-3.823-.615-1.47-.922-3.048-.922-4.736 0-1.688.272-3.267.817-4.736a11.712 11.712 0 0 1 2.344-3.874c1.018-1.08 2.256-1.94 3.714-2.582 1.457-.641 3.081-.962 4.872-.962 1.967 0 3.758.439 5.373 1.316l-.052-7.14c0-2.026.58-3.47 1.738-4.33 1.128-.839 2.738-1.269 4.831-1.291-.007 1.637-.037 3.276-.037 4.911l-.053 18.688zm-11.8 7.748c.457 0 .992-.101 1.607-.304.615-.203 1.203-.582 1.765-1.14.561-.557 1.036-1.35 1.422-2.38.386-1.03.58-2.355.58-3.975 0-1.621-.194-2.946-.58-3.976-.386-1.03-.86-1.823-1.422-2.38-.562-.557-1.15-.937-1.765-1.14-.615-.202-1.15-.304-1.607-.304-.456 0-.992.102-1.606.304-.615.203-1.203.583-1.765 1.14-.562.557-1.036 1.35-1.422 2.38-.387 1.03-.58 2.355-.58 3.976 0 1.62.193 2.945.58 3.975.386 1.03.86 1.823 1.422 2.38.562.558 1.15.937 1.765 1.14.614.203 1.15.304 1.606.304zm35.875-1.064c.42.237.825.642 1.211 1.216.07.09.087.202 0 .303A12.528 12.528 0 0 1 153 46.917c-1.598.692-3.328 1.038-5.19 1.038-1.615 0-3.134-.312-4.556-.937a11.904 11.904 0 0 1-3.766-2.608c-1.054-1.08-1.888-2.355-2.502-3.823-.615-1.47-.922-3.048-.922-4.736 0-1.688.272-3.267.816-4.736a11.712 11.712 0 0 1 2.344-3.874c1.019-1.08 2.257-1.94 3.714-2.582 1.457-.641 3.082-.962 4.873-.962.983 0 2.063.143 3.24.43a11.46 11.46 0 0 1 3.292 1.367 8.003 8.003 0 0 1 2.528 2.457c.668 1.013 1.002 2.228 1.002 3.646 0 1.384-.37 2.507-1.107 3.368a7.99 7.99 0 0 1-2.634 2.025c-1.018.49-2.098.828-3.24 1.014-1.14.185-2.133.278-2.976.278-1.3 0-2.432-.076-3.397-.228a69.59 69.59 0 0 1-1.976-.33c.719 6.22 5.71 6.475 10.668 4.71.871-.31 1.896-.397 2.713.102zm-8.113-14.535c-3.297.288-4.78 2.821-5.215 5.673.562.169 1.36.329 2.397.48 1.035.152 2.072.178 3.108.077 1.036-.102 1.949-.388 2.739-.861.79-.473 1.22-1.267 1.29-2.38.07-.845-.272-1.57-1.027-2.179-.755-.607-1.852-.877-3.292-.81zm14.065 6.77c0-2.262.343-4.111 1.028-5.546.683-1.434 1.57-2.557 2.66-3.367a9.276 9.276 0 0 1 3.66-1.646 19.349 19.349 0 0 1 4.03-.43h1.833c.799.01.794.05.87.636.062.47.057.917-.016 1.338-.07.507-.308.996-.711 1.469-.404.472-1.062.76-1.975.861a9.107 9.107 0 0 0-1.765.38 3.844 3.844 0 0 0-1.554.962c-.456.456-.835 1.106-1.133 1.95-.298.843-.447 1.976-.447 3.393v8.367c0 1.012.008 1.833.026 2.456.017.625.044 1.123.079 1.494.035.406.07.71.105.912-2.142 0-3.793-.431-4.952-1.291-1.158-.861-1.738-2.305-1.738-4.33V34.77z"/>
    </g>
</svg>
